# xmcd
#
# Track frame offsets: 
#        150
#        20515
#        44010
#        62565
#        87107
#        110685
#        127737
#        141447
#        161215
#        182167
#        199025
#        220975
#        236852
#        255822
#        279522
#
# Disc length: 4010 seconds
#
# Revision: 10
# Processed by: cddbd v1.5.2PL0 Copyright (c) Steve Scherf et al.
# Submitted via: ExactAudioCopy v1.0b3
#
DISCID=db0fa80f
DTITLE=スピッツ - CYCLE HIT 1997-2005 Spitz Complete Single Collection
DYEAR=2006
DGENRE=J-Pop
TTITLE0=夢じゃない
TTITLE1=運命の人
TTITLE2=冷たい頬
TTITLE3=楓
TTITLE4=流れ星
TTITLE5=ホタル
TTITLE6=メモリーズ
TTITLE7=遥か
TTITLE8=夢追い虫
TTITLE9=さわって・変わって
TTITLE10=ハネモノ
TTITLE11=水色の街
TTITLE12=スターゲイザー
TTITLE13=正夢
TTITLE14=春の歌
EXTD=E14=??????EXTD=YEAR: 2006
EXTT0=
EXTT1=
EXTT2=
EXTT3=
EXTT4=
EXTT5=
EXTT6=
EXTT7=
EXTT8=
EXTT9=
EXTT10=
EXTT11=
EXTT12=
EXTT13=
EXTT14=
PLAYORDER=
